<svg xmlns="http://www.w3.org/2000/svg" width="128" height="256" viewBox="0 0 128 256">
<rect x="0" y="0" width="128" height="256" rx="9" fill="#071017" opacity="1.0"/>
<rect x="2" y="1" width="124" height="250" rx="8" fill="#86edd4" opacity="1.0"/>
<rect x="4" y="4" width="120" height="243" rx="7" fill="#306363" opacity="1.0"/>
<rect x="7" y="8" width="114" height="9" rx="0.0" fill="#5cb6a4" opacity="1.0"/>
<rect x="7" y="16" width="114" height="9" rx="0.0" fill="#5bb2a1" opacity="1.0"/>
<rect x="7" y="24" width="114" height="9" rx="0.0" fill="#5aaf9e" opacity="1.0"/>
<rect x="7" y="32" width="114" height="9" rx="0.0" fill="#58ab9c" opacity="1.0"/>
<rect x="7" y="40" width="114" height="9" rx="0.0" fill="#57a899" opacity="1.0"/>
<rect x="7" y="48" width="114" height="9" rx="0.0" fill="#55a497" opacity="1.0"/>
<rect x="7" y="56" width="114" height="9" rx="0.0" fill="#54a194" opacity="1.0"/>
<rect x="7" y="64" width="114" height="9" rx="0.0" fill="#529d91" opacity="1.0"/>
<rect x="7" y="72" width="114" height="9" rx="0.0" fill="#519a8f" opacity="1.0"/>
<rect x="7" y="80" width="114" height="9" rx="0.0" fill="#4f968c" opacity="1.0"/>
<rect x="7" y="88" width="114" height="9" rx="0.0" fill="#4e928a" opacity="1.0"/>
<rect x="7" y="96" width="114" height="9" rx="0.0" fill="#4d8f87" opacity="1.0"/>
<rect x="7" y="104" width="114" height="9" rx="0.0" fill="#4b8b84" opacity="1.0"/>
<rect x="7" y="112" width="114" height="9" rx="0.0" fill="#4a8882" opacity="1.0"/>
<rect x="7" y="120" width="114" height="9" rx="0.0" fill="#48847f" opacity="1.0"/>
<rect x="7" y="128" width="114" height="9" rx="0.0" fill="#47817c" opacity="1.0"/>
<rect x="7" y="136" width="114" height="9" rx="0.0" fill="#457d7a" opacity="1.0"/>
<rect x="7" y="144" width="114" height="9" rx="0.0" fill="#447a77" opacity="1.0"/>
<rect x="7" y="152" width="114" height="9" rx="0.0" fill="#427675" opacity="1.0"/>
<rect x="7" y="160" width="114" height="9" rx="0.0" fill="#417372" opacity="1.0"/>
<rect x="7" y="168" width="114" height="9" rx="0.0" fill="#406f6f" opacity="1.0"/>
<rect x="7" y="176" width="114" height="9" rx="0.0" fill="#3e6c6d" opacity="1.0"/>
<rect x="7" y="184" width="114" height="9" rx="0.0" fill="#3d686a" opacity="1.0"/>
<rect x="7" y="192" width="114" height="9" rx="0.0" fill="#3b6467" opacity="1.0"/>
<rect x="7" y="7" width="114" height="4" rx="1" fill="#e0fbf4" opacity="0.65"/>
<rect x="5" y="14" width="2" height="206" rx="0.0" fill="#caf6ef" opacity="0.16"/>
<rect x="121" y="14" width="2" height="206" rx="0.0" fill="#0d2024" opacity="0.8"/>
<rect x="9" y="199" width="110" height="2" rx="0.0" fill="#0c1b25" opacity="0.7"/>
<rect x="10" y="204" width="108" height="34" rx="3" fill="#132b30" opacity="0.9"/>
<rect x="17" y="215" width="94" height="3" rx="1" fill="#b3f8ed" opacity="0.32"/>
<rect x="17" y="222" width="56" height="2" rx="0.0" fill="#79f3da" opacity="0.13"/>
<rect x="15" y="238" width="98" height="3" rx="1" fill="#02070d" opacity="0.85"/>
<rect x="52" y="32" width="4" height="4" rx="1" fill="#c2f9ef" opacity="0.22"/>
<rect x="61" y="32" width="4" height="4" rx="1" fill="#c2f9ef" opacity="0.22"/>
<rect x="70" y="32" width="4" height="4" rx="1" fill="#c2f9ef" opacity="0.22"/>
</svg>
