<svg xmlns="http://www.w3.org/2000/svg" width="128" height="256" viewBox="0 0 128 256">
<rect x="0" y="0" width="128" height="256" rx="9" fill="#071017" opacity="1.0"/>
<rect x="2" y="1" width="124" height="250" rx="8" fill="#f3f8ff" opacity="1.0"/>
<rect x="4" y="4" width="120" height="243" rx="7" fill="#596773" opacity="1.0"/>
<rect x="7" y="8" width="114" height="9" rx="0.0" fill="#b9bfc8" opacity="1.0"/>
<rect x="7" y="16" width="114" height="9" rx="0.0" fill="#b5bbc4" opacity="1.0"/>
<rect x="7" y="24" width="114" height="9" rx="0.0" fill="#b1b7c1" opacity="1.0"/>
<rect x="7" y="32" width="114" height="9" rx="0.0" fill="#adb4bd" opacity="1.0"/>
<rect x="7" y="40" width="114" height="9" rx="0.0" fill="#a8b0b9" opacity="1.0"/>
<rect x="7" y="48" width="114" height="9" rx="0.0" fill="#a4acb6" opacity="1.0"/>
<rect x="7" y="56" width="114" height="9" rx="0.0" fill="#a0a8b2" opacity="1.0"/>
<rect x="7" y="64" width="114" height="9" rx="0.0" fill="#9ca4ae" opacity="1.0"/>
<rect x="7" y="72" width="114" height="9" rx="0.0" fill="#98a1ab" opacity="1.0"/>
<rect x="7" y="80" width="114" height="9" rx="0.0" fill="#949da7" opacity="1.0"/>
<rect x="7" y="88" width="114" height="9" rx="0.0" fill="#9099a4" opacity="1.0"/>
<rect x="7" y="96" width="114" height="9" rx="0.0" fill="#8c95a0" opacity="1.0"/>
<rect x="7" y="104" width="114" height="9" rx="0.0" fill="#88919c" opacity="1.0"/>
<rect x="7" y="112" width="114" height="9" rx="0.0" fill="#848e99" opacity="1.0"/>
<rect x="7" y="120" width="114" height="9" rx="0.0" fill="#808a95" opacity="1.0"/>
<rect x="7" y="128" width="114" height="9" rx="0.0" fill="#7c8691" opacity="1.0"/>
<rect x="7" y="136" width="114" height="9" rx="0.0" fill="#78828e" opacity="1.0"/>
<rect x="7" y="144" width="114" height="9" rx="0.0" fill="#737e8a" opacity="1.0"/>
<rect x="7" y="152" width="114" height="9" rx="0.0" fill="#6f7b86" opacity="1.0"/>
<rect x="7" y="160" width="114" height="9" rx="0.0" fill="#6b7783" opacity="1.0"/>
<rect x="7" y="168" width="114" height="9" rx="0.0" fill="#67737f" opacity="1.0"/>
<rect x="7" y="176" width="114" height="9" rx="0.0" fill="#636f7b" opacity="1.0"/>
<rect x="7" y="184" width="114" height="9" rx="0.0" fill="#5f6b78" opacity="1.0"/>
<rect x="7" y="192" width="114" height="9" rx="0.0" fill="#5b6874" opacity="1.0"/>
<rect x="7" y="7" width="114" height="4" rx="1" fill="#fdfdff" opacity="0.65"/>
<rect x="5" y="14" width="2" height="206" rx="0.0" fill="#f1f9ff" opacity="0.16"/>
<rect x="121" y="14" width="2" height="206" rx="0.0" fill="#1a222a" opacity="0.8"/>
<rect x="9" y="199" width="110" height="2" rx="0.0" fill="#131c27" opacity="0.7"/>
<rect x="10" y="204" width="108" height="34" rx="3" fill="#232d36" opacity="0.9"/>
<rect x="17" y="215" width="94" height="3" rx="1" fill="#e1fdff" opacity="0.32"/>
<rect x="17" y="222" width="56" height="2" rx="0.0" fill="#c8fbf9" opacity="0.13"/>
<rect x="15" y="238" width="98" height="3" rx="1" fill="#02070d" opacity="0.85"/>
<rect x="52" y="32" width="4" height="4" rx="1" fill="#eafdff" opacity="0.22"/>
<rect x="61" y="32" width="4" height="4" rx="1" fill="#eafdff" opacity="0.22"/>
<rect x="70" y="32" width="4" height="4" rx="1" fill="#eafdff" opacity="0.22"/>
</svg>
